# xmcd
#
# Track frame offsets:
#	150
#	45820
#	86082
#	117889
#	147694
#	187060
#	253395
#	263948
#
# Disc length: 4054 seconds
#
# Revision: 0
# Processed by: cddbd v1.5.2PL0 Copyright (c) Steve Scherf et al.
# Submitted via: audiograbber 1.83.01
#
DISCID=770fd408
DTITLE=Grateful Dead - 77-06-07 Winterland Arena, San Francisco CA
DYEAR=1900
DGENRE=
TTITLE0=Scarlet Begonias
TTITLE1=Fire On The Mountain
TTITLE2=Good Lovin
TTITLE3=Candyman
TTITLE4=Estimated Prophet
TTITLE5=He's Gone
TTITLE6=Drums
TTITLE7=Samson and Delilah
EXTD=
EXTT0=
EXTT1=
EXTT2=
EXTT3=
EXTT4=
EXTT5=
EXTT6=
EXTT7=
PLAYORDER=
